HIERARCHY
ROOT Hips
{
    OFFSET 0.000000 0.000000 0.000000
    CHANNELS 6 Xposition Yposition Zposition Zrotation Xrotation Yrotation
        JOINT Chest
        {
            OFFSET -0.000000 31.599348 -0.000000
            CHANNELS 3 Zrotation Xrotation Yrotation
            JOINT Neck
            {
                OFFSET -0.000000 23.422918 0.000000
                CHANNELS 3 Zrotation Xrotation Yrotation
                JOINT Head
                {
                    OFFSET -0.000000 10.877777 0.000000
                    CHANNELS 3 Zrotation Xrotation Yrotation
                    End Site
                    {
                        OFFSET -0.000000 16.811113 0.000000
                    }
                }
            }
            JOINT LeftCollar
            {
                OFFSET -0.000000 23.422918 0.000000
                CHANNELS 3 Zrotation Xrotation Yrotation
                JOINT LeftShoulder
                {
                    OFFSET 22.500000 -0.000000 0.000000
                    CHANNELS 3 Zrotation Xrotation Yrotation
                    JOINT LeftElbow
                    {
                        OFFSET 26.183765 0.000000 0.000000
                        CHANNELS 3 Zrotation Xrotation Yrotation
                        JOINT LeftWrist
                        {
                            OFFSET 21.121546 0.000000 0.000000
                            CHANNELS 3 Zrotation Xrotation Yrotation
                            End Site
                            {
                                OFFSET 14.833334 0.000000 0.000000
                            }
                        }
                    }
                }
            }
            JOINT RightCollar
            {
                OFFSET -0.000000 23.422918 0.000000
                CHANNELS 3 Zrotation Xrotation Yrotation
                JOINT RightShoulder
                {
                    OFFSET -22.500000 0.000000 0.000000
                    CHANNELS 3 Zrotation Xrotation Yrotation
                    JOINT RightElbow
                    {
                        OFFSET -26.183765 0.000000 0.000000
                        CHANNELS 3 Zrotation Xrotation Yrotation
                        JOINT RightWrist
                        {
                            OFFSET -21.121546 0.000000 0.000000
                            CHANNELS 3 Zrotation Xrotation Yrotation
                            End Site
                            {
                                OFFSET -14.833334 0.000000 0.000000
                            }
                        }
                    }
                }
            }
        }
    JOINT LeftHip
    {
        OFFSET 11.866667 0.000000 0.000000
        CHANNELS 3 Zrotation Xrotation Yrotation
        JOINT LeftKnee
        {
            OFFSET -0.000000 -43.651608 0.000000
            CHANNELS 3 Zrotation Xrotation Yrotation
            JOINT LeftAnkle
            {
                OFFSET -0.000000 -37.563271 0.000000
                CHANNELS 3 Zrotation Xrotation Yrotation
                End Site
                {
                    OFFSET -0.000000 -4.944445 16.811113
                }
            }
        }
    }
    JOINT RightHip
    {
        OFFSET -11.866667 0.000000 0.000000
        CHANNELS 3 Zrotation Xrotation Yrotation
        JOINT RightKnee
        {
            OFFSET -0.000000 -43.651608 0.000000
            CHANNELS 3 Zrotation Xrotation Yrotation
            JOINT RightAnkle
            {
                OFFSET -0.000000 -37.563271 0.000000
                CHANNELS 3 Zrotation Xrotation Yrotation
                End Site
                {
                    OFFSET -0.000000 -4.944445 16.811113
                }
            }
        }
    }
}
MOTION
Frames:    10
Frame Time:    0.010000
-11.525154    89.147079    16.914398    6.474433    -0.564511    18.477547    10.808816    21.381025    -1.097351    4.190769    -12.686652    -1.808265    -4.163022    2.138569    -2.272860    -31.146053    0.071791    -0.186616    -33.427082    60.088852    -19.076008    25.135530    -6.875234    -30.276827    17.411629    6.532626    -5.439412    27.962170    -2.388784    -9.461899    38.111889    44.500847    17.099865    -38.523071    -5.770823    16.359846    -13.858338    -11.953188    -6.617033    -2.346246    -18.082960    -15.867285    4.869264    32.253414    -7.356605    -10.236693    -13.212949    27.098524    -21.625166    -7.032902    -5.680610    -2.279115    31.153543    31.489994    -4.569893    -18.409182    -58.865742    
-11.525156    89.147079    16.914391    6.474412    -0.564459    18.477545    10.819886    21.280167    -1.106300    4.186022    -12.537835    -1.945420    -3.718605    2.207589    -2.337911    -30.715414    0.179092    -1.039709    -36.774639    58.977001    -16.239176    24.949013    -6.849241    -30.549311    17.978029    6.997820    -5.884346    28.011307    -2.425424    -9.660971    38.113640    44.440239    17.054384    -38.591526    -5.736195    16.213539    -11.985156    -8.883617    -5.927291    -2.346246    -18.083035    -15.867291    4.869254    32.253433    -7.356632    -10.348150    -13.293375    27.079988    -21.591124    -6.383487    -0.938284    0.582579    29.746851    24.246159    -4.293687    -18.114557    -57.224567    
-11.272762    89.106384    16.880154    6.579947    -0.460791    18.870518    9.362629    21.689533    -0.214961    3.999117    -12.523314    -2.187840    -3.103936    1.893219    -2.581209    -30.718409    0.213405    -0.684200    -34.963684    58.820000    -17.612703    24.925961    -6.728907    -29.425224    16.110527    7.861861    -5.454480    27.668993    -2.541845    -10.983568    36.754604    48.746891    20.041424    -39.335571    -5.625012    14.813662    -14.904802    -12.505416    -6.893436    -2.440865    -18.239622    -15.411908    4.680376    32.162064    -6.181336    -10.491248    -12.935122    25.175533    -21.926455    -6.252964    -2.273104    -0.165530    29.932278    26.403547    -4.050337    -18.433380    -57.968639    
-11.149684    89.092377    16.878271    6.621817    -0.443228    19.034723    8.705342    21.861017    0.236066    3.858789    -12.489386    -2.411115    -2.818957    1.775486    -2.796463    -30.602514    0.239826    -0.855839    -35.144482    58.444336    -17.388893    24.868395    -6.595617    -28.963394    15.595986    8.279426    -5.439406    27.525822    -2.692532    -11.654380    36.146404    50.517002    21.227055    -39.767593    -5.457145    14.288622    -15.100668    -13.577410    -7.049891    -2.458136    -18.285498    -14.947480    4.700910    32.116543    -5.937833    -10.499597    -12.801293    24.337614    -22.047146    -5.987829    -1.620607    0.179508    29.605869    25.536798    -3.850184    -18.471188    -57.868740    
-10.998896    89.074089    16.880678    6.655951    -0.425850    19.232950    7.898599    22.063803    0.781830    3.753287    -12.424388    -2.608086    -2.514670    1.645523    -2.984189    -30.482952    0.257751    -0.926221    -35.185993    57.974403    -17.268757    24.783081    -6.450922    -28.425219    15.033205    8.731580    -5.447608    27.358105    -2.834457    -12.288438    35.430130    52.520916    22.580156    -40.276787    -5.318664    13.751132    -15.210099    -14.851340    -7.154756    -2.476961    -18.362089    -14.302627    4.798331    32.114170    -5.911652    -10.461761    -12.685271    23.469303    -22.168135    -5.694857    -1.077925    0.428160    29.274124    24.861088    -3.625824    -18.515558    -57.819378    
-10.822481    89.049690    16.887960    6.670732    -0.404521    19.468014    7.004222    22.270000    1.395117    3.625984    -12.344460    -2.832361    -2.190281    1.519088    -3.200994    -30.370237    0.283844    -0.992615    -35.147095    57.445240    -17.187199    24.659397    -6.279960    -27.850866    14.454481    9.188159    -5.488936    27.170040    -2.972580    -12.955235    34.586838    54.608021    24.096367    -40.855492    -5.201308    13.252595    -15.230739    -16.230309    -7.196575    -2.502504    -18.491304    -13.489183    4.999844    32.193100    -6.209960    -10.366912    -12.614942    22.664051    -22.273911    -5.380735    -0.660655    0.573265    28.940104    24.381479    -3.386886    -18.561218    -57.820827    
-10.623334    89.017761    16.900509    6.654793    -0.374882    19.742165    6.063664    22.459085    2.042562    3.479611    -12.250092    -3.078488    -1.849053    1.408378    -3.435274    -30.268217    0.310000    -1.056952    -35.033031    56.875767    -17.138605    24.521891    -6.108819    -27.271324    13.886798    9.612846    -5.555225    26.969608    -3.108253    -13.616983    33.676128    56.662666    25.674576    -41.477016    -5.110634    12.853985    -15.170003    -17.587917    -7.161881    -2.540324    -18.692835    -12.541117    5.323199    32.384216    -6.892109    -10.209259    -12.609450    21.998899    -22.349342    -5.050768    -0.358728    0.624442    28.600300    24.062351    -3.139087    -18.603893    -57.866970    
-10.404157    88.977646    16.918491    6.599162    -0.333451    20.056120    5.119085    22.614313    2.687030    3.318690    -12.145218    -3.337535    -1.504084    1.322679    -3.679041    -30.179834    0.288533    -1.122037    -34.877403    56.325573    -17.085953    24.416378    -5.961185    -26.712879    13.337012    9.955759    -5.642549    26.769001    -3.237421    -14.241166    32.775211    58.580643    27.197477    -42.111317    -5.058854    12.608642    -15.040140    -18.805452    -7.037610    -2.595761    -18.979301    -11.513002    5.771586    32.704117    -7.955654    -9.987998    -12.675153    21.522913    -22.382696    -4.708873    -0.146263    0.601340    28.247288    23.842318    -2.878510    -18.643047    -57.946106    
-10.166780    88.929573    16.941708    6.499121    -0.277394    20.409306    4.208118    22.724085    3.291264    3.152872    -12.035096    -3.596875    -1.170536    1.267235    -3.922148    -30.103306    0.314974    -1.185688    -34.723572    55.706459    -16.985357    24.200342    -5.787780    -26.266420    12.890274    10.297365    -5.763122    26.581408    -3.354928    -14.799519    31.970686    60.286621    28.546751    -42.735374    -5.058609    12.549106    -14.856791    -19.796001    -6.817740    -2.674428    -19.354086    -10.477610    6.329712    33.152649    -9.336038    -9.706392    -12.805612    21.252956    -22.368629    -4.358036    0.008155    0.527816    27.872778    23.649643    -2.590687    -18.683764    -58.043076    
-9.912057    88.874527    16.969601    6.354184    -0.203982    20.799641    3.360487    22.781839    3.822049    2.990497    -11.925382    -3.847005    -0.860379    1.242436    -4.155471    -30.038532    0.341581    -1.246864    -34.520515    55.103638    -16.901228    24.025826    -5.648813    -25.905626    12.494721    10.528717    -5.894413    26.416311    -3.465295    -15.280598    31.329338    61.748028    29.638620    -43.343254    -5.115561    12.672336    -14.626082    -20.521215    -6.500740    -2.781248    -19.810930    -9.520794    6.961220    33.713360    -10.912580    -9.372467    -12.983842    21.172815    -22.308144    -4.001304    0.137211    0.427883    27.469257    23.411699    -2.253220    -18.734549    -58.140800    
